<svg xmlns="http://www.w3.org/2000/svg" viewBox="0 0 500 500">
  <style>
    .primary-color { fill: var(--primary-color, #4f46e5); }
    .secondary-color { fill: var(--surface-100, #f3f4f6); }
    .accent-color { fill: var(--surface-200, #e5e7eb); }
    .dark-color { fill: var(--primary-700, #4338ca); }
    @media (prefers-color-scheme: dark) {
      .secondary-color { fill: var(--surface-700, #334155); }
      .accent-color { fill: var(--surface-800, #1e293b); }
      .dark-color { fill: var(--primary-500, #6366f1); }
    }
  </style>
  <rect width="100%" height="100%" fill="none"/>
  <circle cx="250" cy="250" r="180" class="secondary-color" opacity="0.3"/>
  <rect x="120" y="120" width="260" height="200" rx="15" class="accent-color"/>
  <rect x="140" y="150" width="220" height="150" rx="8" class="dark-color"/>
  <path d="M160,170 L190,170 L190,185 L160,185 Z" class="primary-color"/>
  <path d="M200,170 L260,170 L260,185 L200,185 Z" fill="white"/>
  <path d="M160,200 L210,200 L210,215 L160,215 Z" class="primary-color"/>
  <path d="M220,200 L290,200 L290,215 L220,215 Z" fill="white"/>
  <path d="M160,230 L180,230 L180,245 L160,245 Z" class="primary-color"/>
  <path d="M190,230 L270,230 L270,245 L190,245 Z" fill="white"/>
  <path d="M160,260 L200,260 L200,275 L160,275 Z" class="primary-color"/>
  <path d="M210,260 L280,260 L280,275 L210,275 Z" fill="white"/>
  <circle cx="340" cy="320" r="50" class="primary-color"/>
  <path d="M325,305 L355,305 L355,335 L325,335 Z" fill="white"/>
  <path d="M310,320 L370,320" fill="none" stroke="white" stroke-width="5"/>
</svg>
