<svg xmlns="http://www.w3.org/2000/svg" viewBox="0 0 500 500">
  <style>
    .primary-color { fill: var(--primary-color, #4f46e5); }
    .secondary-color { fill: var(--surface-100, #f3f4f6); }
    .accent-color { fill: var(--surface-200, #e5e7eb); }
    .dark-color { fill: var(--primary-700, #4338ca); }
    @media (prefers-color-scheme: dark) {
      .secondary-color { fill: var(--surface-700, #334155); }
      .accent-color { fill: var(--surface-800, #1e293b); }
      .dark-color { fill: var(--primary-500, #6366f1); }
    }
  </style>
  <rect width="100%" height="100%" fill="none"/>
  <circle cx="250" cy="250" r="180" class="secondary-color" opacity="0.3"/>
  <path d="M340,150 L160,150 C145,150 130,165 130,180 L130,320 C130,335 145,350 160,350 L340,350 C355,350 370,335 370,320 L370,180 C370,165 355,150 340,150 Z" class="accent-color"/>
  <rect x="160" y="190" width="180" height="130" rx="8" class="primary-color"/>
  <circle cx="250" cy="150" r="50" class="dark-color"/>
  <path d="M225,125 L275,125 L275,175 L225,175 Z" fill="white"/>
  <path d="M235,135 L265,135 L265,165 L235,165 Z" class="primary-color"/>
  <path d="M180,210 L320,210 L320,225 L180,225 Z" fill="white"/>
  <path d="M180,240 L320,240 L320,255 L180,255 Z" fill="white"/>
  <path d="M180,270 L280,270 L280,285 L180,285 Z" fill="white"/>
</svg>
