<svg xmlns="http://www.w3.org/2000/svg" viewBox="0 0 500 500">
  <style>
    .primary-color { fill: var(--primary-color, #4f46e5); }
    .secondary-color { fill: var(--surface-100, #f3f4f6); }
    .accent-color { fill: var(--surface-200, #e5e7eb); }
    .dark-color { fill: var(--primary-700, #4338ca); }
    @media (prefers-color-scheme: dark) {
      .secondary-color { fill: var(--surface-700, #334155); }
      .accent-color { fill: var(--surface-800, #1e293b); }
      .dark-color { fill: var(--primary-500, #6366f1); }
    }
  </style>
  <rect width="100%" height="100%" fill="none"/>
  <circle cx="250" cy="250" r="180" class="secondary-color" opacity="0.3"/>
  
  <!-- Person 1 -->
  <circle cx="160" cy="180" r="40" class="dark-color"/>
  <path d="M120,220 L200,220 L200,320 L120,320 Z" class="primary-color"/>
  
  <!-- Person 2 -->
  <circle cx="250" cy="180" r="40" class="dark-color"/>
  <path d="M210,220 L290,220 L290,320 L210,320 Z" class="primary-color"/>
  
  <!-- Person 3 -->
  <circle cx="340" cy="180" r="40" class="dark-color"/>
  <path d="M300,220 L380,220 L380,320 L300,320 Z" class="primary-color"/>
  
  <!-- Connection lines -->
  <path d="M160,180 L250,180" fill="none" stroke="white" stroke-width="5"/>
  <path d="M250,180 L340,180" fill="none" stroke="white" stroke-width="5"/>
  
  <!-- Table -->
  <rect x="120" y="320" width="260" height="30" rx="8" class="accent-color"/>
  
  <!-- Faces -->
  <circle cx="150" cy="170" r="7" fill="white"/>
  <circle cx="170" cy="170" r="7" fill="white"/>
  <path d="M145,195 C145,195 160,205 175,195" fill="none" stroke="white" stroke-width="3"/>
  
  <circle cx="240" cy="170" r="7" fill="white"/>
  <circle cx="260" cy="170" r="7" fill="white"/>
  <path d="M235,195 C235,195 250,205 265,195" fill="none" stroke="white" stroke-width="3"/>
  
  <circle cx="330" cy="170" r="7" fill="white"/>
  <circle cx="350" cy="170" r="7" fill="white"/>
  <path d="M325,195 C325,195 340,205 355,195" fill="none" stroke="white" stroke-width="3"/>
</svg>
