<?xml version="1.0" encoding="UTF-8"?>
<!DOCTYPE svg PUBLIC "-//W3C//DTD SVG 1.1//EN" "http://www.w3.org/Graphics/SVG/1.1/DTD/svg11.dtd">
<!-- Creator: CorelDRAW X7 -->
<svg xmlns="http://www.w3.org/2000/svg" xml:space="preserve" width="297mm" height="110mm" version="1.1" style="shape-rendering:geometricPrecision; text-rendering:geometricPrecision; image-rendering:optimizeQuality; fill-rule:evenodd; clip-rule:evenodd"
viewBox="0 0 29700 11000"
 xmlns:xlink="http://www.w3.org/1999/xlink">
 <defs>
  <style type="text/css">
   <![CDATA[
    .fil0 {fill:#2C3E50;fill-rule:nonzero}
   ]]>
  </style>
 </defs>
 <g id="Capa_x0020_1">
  <metadata id="CorelCorpID_0Corel-Layer"/>
  <path class="fil0" d="M12060 6076c-191,377 -423,665 -696,867 -272,202 -564,302 -875,302 -350,0 -637,-113 -862,-343 -227,-228 -340,-522 -340,-884 0,-359 96,-742 288,-1142 193,-402 460,-777 801,-1124 289,-292 577,-517 866,-681 289,-162 550,-242 777,-242 228,0 408,61 542,183 134,120 201,286 201,493 0,375 -181,746 -543,1112 -363,366 -825,630 -1388,792l102 -280c457,-158 832,-395 1128,-710 296,-316 444,-626 444,-931 0,-129 -45,-235 -133,-314 -89,-80 -207,-121 -353,-121 -159,0 -346,60 -562,181 -216,119 -449,291 -700,516 -360,325 -648,688 -864,1089 -216,400 -323,761 -323,1084 0,320 85,571 253,760 169,188 393,282 676,282 268,0 517,-84 746,-249 229,-167 432,-409 606,-731l209 91zm1439 271c96,-167 167,-316 216,-442 49,-128 73,-228 73,-301 0,-30 -10,-57 -30,-82 -19,-24 -40,-36 -65,-36 -57,0 -116,61 -174,183 -60,123 -90,252 -90,391 3,49 9,96 20,141 9,46 27,95 50,146zm867 -247l0 247c-170,134 -308,228 -418,281 -111,54 -212,81 -304,81 -17,0 -46,-2 -91,-6 -18,-2 -30,-5 -40,-6 -162,184 -314,323 -456,414 -143,89 -281,134 -414,134 -174,0 -312,-66 -415,-197 -104,-131 -156,-307 -156,-530 0,-259 67,-508 202,-747 136,-240 325,-447 566,-621 109,-78 226,-143 353,-197 126,-52 219,-79 277,-79 23,0 44,9 61,30 16,18 25,42 25,70 0,51 -64,104 -191,158 -128,55 -233,110 -318,165 -206,136 -377,319 -509,550 -134,229 -201,451 -201,662 0,140 35,258 105,355 72,96 155,144 253,144 91,0 188,-36 294,-110 104,-73 225,-188 360,-344 -51,-83 -89,-164 -115,-244 -25,-79 -37,-161 -37,-243 0,-214 61,-411 182,-588 123,-177 247,-268 371,-268 75,0 138,34 189,101 50,67 76,152 76,253 0,122 -32,267 -94,431 -61,165 -149,327 -259,488l13 0c69,0 153,-27 252,-80 99,-56 245,-155 439,-304zm3841 22l0 250 -147 116c-652,505 -1045,757 -1179,757 -51,0 -88,-14 -113,-42 -24,-30 -38,-74 -38,-138 0,-29 5,-61 14,-97 10,-36 21,-70 35,-101l621 -1287c21,-45 36,-80 47,-109 8,-28 13,-55 13,-78 0,-5 -2,-8 -3,-9 0,-3 -2,-3 -3,-3 -19,0 -103,70 -252,213 -149,141 -323,317 -521,528 -170,177 -369,399 -598,666 -264,305 -435,457 -510,457 -32,0 -59,-9 -81,-29 -21,-19 -32,-44 -32,-74 0,-48 18,-110 58,-191 9,-16 14,-28 18,-37l566 -1212c39,-85 69,-153 89,-204 20,-52 30,-86 30,-100 0,-1 -1,-4 -3,-7 -1,-4 -4,-4 -9,-4 -27,0 -100,55 -219,163 -117,109 -268,261 -448,454 -152,164 -339,379 -566,641 -342,400 -568,600 -679,600 -35,0 -67,-15 -89,-45 -24,-31 -36,-70 -36,-116 0,-57 81,-231 243,-518 101,-185 185,-334 246,-450 -78,72 -151,134 -222,188 -69,53 -136,98 -200,135l0 -250c163,-118 306,-237 428,-357 122,-121 199,-210 228,-265l276 -562 271 0 -753 1571c466,-518 855,-917 1164,-1195 310,-280 519,-419 626,-419 41,0 73,9 94,27 22,19 32,46 32,86 0,29 -7,64 -19,106 -12,40 -33,95 -61,162l-544 1202c455,-509 833,-899 1132,-1173 301,-274 505,-410 610,-410 39,0 70,11 93,30 22,21 34,48 34,83 0,33 -7,70 -22,115 -14,46 -35,97 -61,153l-648 1396c-13,31 -24,55 -28,68 -5,15 -9,24 -9,31 0,17 4,30 12,39 6,10 16,16 25,19 36,0 149,-68 341,-205 193,-139 442,-328 747,-569zm580 -243c-139,134 -262,246 -373,338 -108,91 -208,166 -299,222l0 -248c214,-163 405,-321 569,-475 165,-155 253,-249 266,-283l172 -429 257 0 -246 663c210,-267 391,-455 541,-562 149,-107 295,-162 438,-162 141,0 257,52 348,155 92,102 137,233 137,394 0,240 -74,489 -222,746 -149,256 -356,498 -625,721 152,-9 326,-69 524,-180 197,-113 497,-331 901,-657l0 252c-343,284 -630,481 -859,589 -230,111 -459,164 -691,164 -11,0 -25,-1 -45,-3 -19,-3 -34,-3 -45,-3 -93,42 -177,73 -248,94 -72,19 -134,30 -185,30 -92,0 -171,-21 -235,-64 -67,-42 -98,-91 -98,-146 0,-39 13,-72 44,-98 32,-26 70,-41 118,-41 42,0 106,8 188,23 80,15 140,21 177,21 101,0 204,-36 308,-106 106,-72 213,-177 322,-317 131,-172 235,-350 311,-542 76,-191 114,-359 114,-505 0,-77 -25,-144 -74,-200 -51,-55 -112,-83 -183,-83 -103,0 -207,34 -314,107 -108,70 -234,189 -383,355 -177,205 -332,421 -465,644 -132,225 -239,460 -326,708 -37,108 -89,303 -156,586 -67,285 -135,594 -202,931l-8 34c-61,314 -138,472 -232,472 -33,0 -60,-16 -81,-46 -22,-30 -32,-69 -32,-116 0,-63 29,-225 89,-486 61,-262 141,-565 238,-912 104,-377 201,-687 291,-932 89,-246 180,-463 274,-653zm3914 862c-8,20 -15,39 -21,57 -7,19 -10,31 -10,40 0,14 4,29 13,39 7,13 16,19 27,19 33,0 146,-68 339,-205 194,-139 444,-328 748,-569l0 250 -76 58c-719,556 -1151,834 -1294,834 -30,0 -58,-15 -83,-42 -24,-28 -36,-62 -36,-102 0,-20 7,-54 21,-99 15,-44 34,-96 61,-159l201 -454c-204,304 -383,520 -535,646 -153,128 -304,191 -452,191 -157,0 -283,-66 -380,-195 -98,-130 -149,-300 -149,-508 0,-155 30,-302 89,-441 60,-140 149,-277 271,-411 204,-220 446,-397 727,-530 280,-131 551,-198 811,-198 109,0 206,11 289,33 85,21 167,57 246,106l-12 236c-86,-56 -171,-98 -256,-123 -85,-27 -176,-40 -271,-40 -229,0 -469,59 -722,177 -252,117 -456,268 -614,448 -99,116 -177,237 -230,363 -56,128 -82,252 -82,374 0,141 29,255 91,337 59,81 141,123 239,123 125,0 283,-103 475,-308 191,-206 499,-617 922,-1233l247 24 -594 1262zm1000 -302l0 -250c163,-118 304,-237 428,-357 122,-121 198,-210 226,-267l277 -560 271 0 -753 1571c597,-586 1051,-1006 1360,-1256 310,-251 526,-377 650,-377 29,0 53,13 71,40 15,27 24,66 24,116 0,27 -6,55 -16,88 -9,33 -30,85 -61,155l-647 1397c-13,31 -25,55 -29,68 -6,15 -8,24 -8,31 0,17 3,30 11,39 7,10 16,16 26,19 35,0 149,-68 341,-205 192,-137 443,-328 748,-569l0 250 -145 110c-676,522 -1085,782 -1227,782 -35,0 -64,-16 -87,-51 -26,-34 -39,-77 -39,-129 0,-24 7,-54 21,-91 13,-37 31,-82 56,-131l615 -1282c34,-68 55,-113 64,-131 8,-18 12,-31 12,-39 0,-19 -1,-32 -6,-41 -4,-9 -10,-14 -18,-14 -26,0 -105,48 -232,143 -128,96 -272,216 -435,362 -198,173 -385,347 -560,524 -175,177 -330,346 -464,506 -22,24 -49,58 -86,103 -131,170 -242,252 -329,252 -39,0 -69,-14 -93,-43 -22,-30 -33,-69 -33,-118 0,-60 93,-256 279,-590 88,-156 158,-283 208,-378 -77,72 -152,134 -220,188 -69,53 -137,100 -200,135zm3246 -323c-77,72 -150,134 -222,188 -68,53 -135,100 -198,135l0 -248c167,-124 313,-248 437,-368 123,-121 196,-207 217,-258l258 -560 269 0 -665 1571c-6,15 -17,34 -27,60 -37,68 -57,120 -57,155 3,12 6,20 11,23 3,5 10,8 17,8 84,0 313,-179 685,-535 374,-357 760,-784 1156,-1282l257 0 -981 2161 70 -61c569,-478 980,-806 1230,-983l0 252c-399,302 -731,566 -996,792 -267,225 -460,406 -579,542 -151,445 -286,774 -407,991 -120,216 -228,325 -324,325 -36,0 -67,-16 -90,-48 -22,-31 -32,-73 -32,-126 0,-167 65,-375 195,-627 131,-252 303,-488 519,-709l816 -1818c-490,532 -880,925 -1173,1174 -295,251 -508,375 -643,375 -49,0 -85,-8 -106,-26 -22,-17 -33,-47 -33,-92 0,-25 9,-64 24,-116 16,-54 40,-118 72,-189l300 -706z"/>
  <path class="fil0" d="M4757 5790l530 0 0 82c0,261 22,453 65,576 42,122 112,210 210,261 76,40 195,67 354,83 160,18 489,25 988,25 271,0 479,-16 629,-47 149,-33 259,-85 332,-158 41,-39 70,-106 90,-200 19,-93 28,-221 28,-382 0,-325 -36,-529 -106,-612 -71,-82 -213,-133 -423,-148l-1468 -107c-439,-30 -743,-132 -911,-302 -168,-171 -253,-457 -253,-862 0,-255 28,-459 83,-614 55,-154 145,-282 270,-384 95,-79 229,-134 402,-166 173,-33 478,-50 914,-50l170 0c488,0 832,23 1032,66 199,43 364,118 500,223 92,72 159,172 202,301 45,131 66,293 66,488 0,57 -2,100 -2,130 -1,31 -3,58 -4,82l-530 0 0 -110c0,-160 -10,-282 -31,-368 -20,-85 -52,-147 -97,-189 -67,-61 -185,-103 -353,-128 -171,-24 -491,-36 -966,-36 -490,0 -798,51 -923,152 -125,103 -190,305 -190,610 0,251 42,425 124,519 82,95 240,151 475,169l1496 115c392,31 666,131 825,298 157,166 235,446 235,839 0,286 -20,502 -61,647 -40,143 -107,263 -201,358 -116,121 -271,203 -464,252 -195,48 -550,72 -1066,72l-237 0c-438,0 -747,-21 -930,-63 -182,-40 -334,-112 -456,-214 -119,-94 -207,-222 -264,-382 -56,-160 -84,-364 -84,-612l0 -214z"/>
  <polygon class="fil0" points="351,3278 351,2803 4018,2803 4018,3278 2453,3278 2453,7285 1908,7285 1908,3278 "/>
 </g>
</svg>
