<?xml version="1.0" encoding="UTF-8"?>
<svg xmlns="http://www.w3.org/2000/svg" width="100mm" height="100mm" version="1.1" viewBox="0 0 29700 21000" xmlns:xlink="http://www.w3.org/1999/xlink">
 <g>
   <path fill="#2C3E50" d="M14882 17141c-3701,0 -6699,-3001 -6699,-6699 0,-3700 2998,-6699 6699,-6699 3700,0 6699,2999 6699,6699 0,3698 -2999,6699 -6699,6699zm0 -15936c-5101,0 -9237,4136 -9237,9237 0,5101 4136,9237 9237,9237 5101,0 9237,-4136 9237,-9237 0,-5101 -4136,-9237 -9237,-9237z"/>
   <polygon fill="#2C3E50" points="19744,13311 16422,14479 19736,7571 21525,9596 "/>
   <polygon fill="#2ECC71" points="18843,6454 15328,6219 20373,11986 21554,9555 "/>
   <polygon fill="#2ECC71" points="10904,14268 14417,14504 9374,8737 8191,11168 "/>
   <polygon fill="#2C3E50" points="10001,7412 13325,6244 10011,13153 8220,11125 "/>
  </g>
</svg>
