<?xml version="1.0" encoding="UTF-8"?>
<svg xmlns="http://www.w3.org/2000/svg" width="300mm" height="100mm" version="1.1"
viewBox="0 0 30000 10000"
 xmlns:xlink="http://www.w3.org/1999/xlink">
 <g id="Capa_x0020_1">
  <path fill="#2C3E50" d="M5044 8295c-1799,0 -3257,-1459 -3257,-3257 0,-1799 1458,-3257 3257,-3257 1799,0 3257,1458 3257,3257 0,1798 -1458,3257 -3257,3257zm0 -7748c-2480,0 -4491,2011 -4491,4491 0,2480 2011,4491 4491,4491 2480,0 4491,-2011 4491,-4491 0,-2480 -2011,-4491 -4491,-4491z"/>
  <path fill="#2C3E50" d="M17885 5194c-128,253 -284,447 -467,582 -183,136 -379,203 -588,203 -235,0 -428,-76 -579,-230 -152,-153 -228,-351 -228,-594 0,-241 64,-498 193,-767 130,-270 309,-522 538,-755 194,-196 388,-347 582,-457 194,-109 369,-163 522,-163 153,0 274,41 364,123 90,81 135,192 135,331 0,252 -122,501 -365,747 -244,246 -554,423 -932,532l68 -188c307,-106 559,-265 758,-477 199,-212 298,-420 298,-625 0,-87 -30,-158 -89,-211 -60,-54 -139,-81 -237,-81 -107,0 -233,40 -378,121 -145,80 -301,196 -470,347 -242,218 -435,462 -580,731 -145,269 -217,511 -217,728 0,215 57,384 170,511 113,126 264,189 454,189 180,0 347,-56 501,-167 154,-112 290,-275 407,-491l140 61zm967 182c64,-112 112,-212 145,-297 33,-86 49,-153 49,-202 0,-20 -7,-38 -20,-55 -13,-16 -27,-24 -44,-24 -38,0 -78,41 -117,123 -40,82 -60,169 -60,262 2,33 6,65 13,95 6,31 18,64 34,98zm582 -166l0 166c-114,90 -207,153 -281,189 -74,36 -142,54 -204,54 -11,0 -31,-1 -61,-4 -12,-1 -20,-3 -27,-4 -109,124 -211,217 -306,278 -96,60 -189,90 -278,90 -117,0 -210,-44 -279,-132 -70,-88 -105,-206 -105,-356 0,-174 45,-341 136,-502 91,-161 218,-300 380,-417 73,-52 152,-96 237,-132 85,-35 147,-53 186,-53 16,0 30,6 41,20 11,12 17,28 17,47 0,34 -43,70 -128,106 -86,37 -157,74 -214,111 -138,91 -253,214 -342,369 -90,154 -135,303 -135,445 0,94 24,173 71,238 48,65 104,97 170,97 61,0 126,-24 197,-74 70,-49 151,-126 242,-231 -34,-56 -60,-110 -77,-164 -17,-53 -25,-108 -25,-163 0,-144 41,-276 122,-395 83,-119 166,-180 249,-180 51,0 93,23 127,68 34,45 51,102 51,170 0,82 -21,179 -63,289 -41,111 -100,220 -174,328l9 0c46,0 103,-18 169,-54 67,-37 165,-104 295,-204zm2580 15l0 168 -99 78c-438,339 -702,508 -792,508 -34,0 -59,-9 -76,-28 -16,-20 -25,-50 -25,-93 0,-19 3,-41 9,-65 7,-24 14,-47 24,-68l417 -864c14,-30 24,-54 31,-73 6,-19 9,-37 9,-53 0,-3 -1,-5 -2,-6 0,-2 -1,-2 -2,-2 -13,0 -69,47 -169,143 -100,95 -217,213 -350,355 -114,119 -248,268 -402,447 -177,205 -292,307 -342,307 -22,0 -40,-6 -55,-19 -14,-13 -21,-30 -21,-50 0,-32 12,-74 39,-128 6,-11 9,-19 12,-25l380 -814c26,-57 46,-103 60,-137 13,-35 20,-58 20,-67 0,-1 -1,-3 -2,-5 -1,-3 -3,-3 -6,-3 -18,0 -67,37 -147,110 -79,73 -180,175 -301,305 -102,110 -228,254 -380,430 -230,269 -382,403 -456,403 -24,0 -45,-10 -60,-30 -16,-21 -24,-47 -24,-78 0,-38 54,-155 163,-348 68,-124 124,-224 165,-302 -52,48 -101,90 -149,126 -46,36 -91,66 -134,91l0 -168c109,-79 205,-159 287,-240 82,-81 134,-141 153,-178l186 -377 182 0 -506 1055c313,-348 574,-616 782,-803 208,-188 348,-281 420,-281 28,0 49,6 63,18 15,13 22,31 22,58 0,19 -5,43 -13,71 -8,27 -22,64 -41,109l-365 807c305,-342 559,-604 760,-788 202,-184 339,-275 410,-275 26,0 47,7 62,20 15,14 23,32 23,56 0,22 -5,47 -15,77 -9,31 -23,65 -41,103l-435 937c-9,21 -16,37 -19,46 -3,10 -6,16 -6,21 0,11 3,20 8,26 4,7 11,11 17,13 24,0 100,-46 229,-138 130,-93 297,-220 502,-382zm389 -163c-93,90 -176,165 -250,227 -73,61 -140,111 -201,149l0 -167c144,-109 272,-215 382,-319 111,-104 170,-167 179,-190l115 -288 173 0 -165 445c141,-179 262,-305 363,-377 100,-72 198,-109 294,-109 95,0 173,35 234,104 62,69 92,157 92,265 0,161 -50,328 -149,501 -100,172 -239,334 -420,484 102,-6 219,-46 352,-121 132,-76 334,-222 605,-441l0 169c-230,191 -423,323 -577,396 -154,74 -308,110 -464,110 -7,0 -17,-1 -30,-2 -13,-2 -23,-2 -30,-2 -63,28 -119,49 -167,63 -48,13 -90,20 -124,20 -62,0 -115,-14 -158,-43 -45,-28 -66,-61 -66,-98 0,-26 9,-48 30,-66 21,-17 47,-27 79,-27 28,0 71,5 126,15 54,10 94,14 119,14 68,0 137,-24 207,-71 71,-48 143,-119 216,-213 88,-115 158,-235 209,-364 51,-128 77,-241 77,-339 0,-52 -17,-97 -50,-134 -34,-37 -75,-56 -123,-56 -69,0 -139,23 -211,72 -72,47 -157,127 -257,238 -119,138 -223,283 -312,433 -89,151 -161,309 -219,475 -25,73 -60,204 -105,394 -45,191 -91,399 -136,625l-5 23c-41,211 -93,317 -156,317 -22,0 -40,-11 -54,-31 -15,-20 -22,-46 -22,-78 0,-42 20,-151 60,-326 41,-176 95,-380 160,-613 70,-253 135,-461 195,-626 60,-165 121,-311 184,-438zm2629 579c-5,13 -10,26 -14,38 -5,13 -7,21 -7,27 0,9 3,19 9,26 5,9 11,13 18,13 22,0 98,-46 228,-138 130,-93 298,-220 502,-382l0 168 -51 39c-483,373 -773,560 -869,560 -20,0 -39,-10 -56,-28 -16,-19 -24,-42 -24,-69 0,-13 5,-36 14,-66 10,-30 23,-65 41,-107l135 -305c-137,204 -257,349 -359,434 -103,86 -204,128 -304,128 -105,0 -190,-44 -255,-131 -66,-87 -100,-201 -100,-341 0,-104 20,-203 60,-296 40,-94 100,-186 182,-276 137,-148 299,-267 488,-356 188,-88 370,-133 545,-133 73,0 138,7 194,22 57,14 112,38 165,71l-8 159c-58,-38 -115,-66 -172,-83 -57,-18 -118,-27 -182,-27 -154,0 -315,40 -485,119 -169,79 -306,180 -412,301 -67,78 -119,159 -155,244 -37,86 -55,169 -55,251 0,95 20,171 61,226 40,55 95,83 161,83 84,0 190,-69 319,-207 128,-138 335,-414 619,-828l166 16 -399 848zm672 -203l0 -168c109,-79 204,-159 287,-240 82,-81 133,-141 152,-179l186 -376 182 0 -506 1055c401,-394 706,-676 914,-844 208,-168 353,-253 436,-253 20,0 36,9 48,27 10,18 16,44 16,78 0,18 -4,37 -11,59 -6,22 -20,57 -41,104l-434 938c-9,21 -17,37 -20,46 -4,10 -5,16 -5,21 0,11 2,20 7,26 5,7 11,11 18,13 23,0 100,-46 229,-138 129,-92 297,-220 502,-382l0 168 -97 74c-454,350 -729,525 -824,525 -24,0 -43,-11 -59,-34 -17,-23 -26,-52 -26,-87 0,-16 5,-36 14,-61 9,-25 21,-55 38,-88l413 -861c23,-46 37,-76 43,-88 5,-12 8,-21 8,-26 0,-13 -1,-22 -4,-28 -3,-6 -7,-9 -12,-9 -18,0 -71,32 -156,96 -86,64 -183,145 -292,243 -133,116 -259,233 -376,352 -118,119 -222,232 -312,340 -15,16 -33,39 -58,69 -88,114 -162,169 -221,169 -26,0 -46,-9 -62,-29 -15,-20 -22,-46 -22,-79 0,-40 62,-172 187,-396 59,-105 106,-190 140,-254 -52,48 -102,90 -148,126 -46,36 -92,67 -134,91zm2180 -217c-52,48 -101,90 -149,126 -46,36 -91,67 -133,91l0 -167c112,-83 210,-166 293,-247 83,-81 132,-139 146,-173l173 -376 181 0 -447 1055c-4,10 -11,23 -18,40 -25,46 -38,81 -38,104 2,8 4,14 7,16 2,3 7,5 12,5 56,0 210,-120 460,-359 251,-240 510,-527 776,-861l173 0 -659 1451 47 -41c382,-321 658,-541 826,-660l0 169c-268,203 -491,380 -669,532 -179,151 -309,273 -389,364 -101,299 -192,520 -273,666 -81,145 -153,218 -218,218 -24,0 -45,-11 -60,-32 -15,-21 -22,-49 -22,-85 0,-112 44,-252 131,-421 88,-169 204,-328 349,-476l548 -1221c-329,357 -591,621 -788,788 -198,169 -341,252 -432,252 -33,0 -57,-5 -71,-17 -15,-12 -22,-32 -22,-62 0,-17 6,-43 16,-78 11,-36 27,-79 48,-127l202 -474z"/>
  <path fill="#2C3E50" d="M12980 5002l356 0 0 55c0,175 15,304 44,387 28,82 75,141 141,175 51,27 131,45 238,56 107,12 328,17 663,17 182,0 322,-11 423,-32 100,-22 174,-57 223,-106 27,-26 47,-71 60,-134 13,-63 19,-149 19,-257 0,-218 -24,-355 -71,-411 -48,-55 -143,-89 -284,-99l-986 -72c-295,-20 -499,-89 -612,-203 -113,-115 -170,-307 -170,-579 0,-171 19,-308 56,-412 37,-104 97,-190 181,-258 64,-53 154,-90 270,-112 116,-22 321,-33 614,-33l114 0c328,0 559,15 693,44 134,29 245,79 336,150 62,48 107,115 136,202 30,88 44,197 44,328 0,38 -1,67 -1,87 -1,21 -2,39 -3,55l-356 0 0 -74c0,-107 -7,-189 -21,-247 -13,-57 -35,-99 -65,-127 -45,-41 -124,-69 -237,-86 -115,-16 -330,-24 -649,-24 -329,0 -536,34 -620,102 -84,69 -127,205 -127,410 0,168 28,285 83,348 55,64 161,102 319,114l1005 77c263,21 447,88 554,200 105,112 158,300 158,564 0,192 -14,337 -41,434 -27,96 -72,177 -135,241 -78,81 -182,136 -312,169 -131,32 -369,48 -716,48l-159 0c-294,0 -502,-14 -625,-42 -122,-27 -224,-75 -306,-144 -80,-63 -139,-149 -177,-256 -38,-108 -57,-245 -57,-411l0 -144z"/>
  <polygon fill="#2C3E50" points="10021,3315 10021,2996 12484,2996 12484,3315 11433,3315 11433,6006 11067,6006 11067,3315 "/>
  <polygon fill="#2C3E50" points="7408,6433 5793,7001 7404,3642 8274,4627 "/>
  <polygon fill="#2ECC71" points="6970,3099 5261,2985 7714,5789 8288,4607 "/>
  <polygon fill="#2ECC71" points="3110,6898 4818,7013 2366,4209 1791,5391 "/>
  <polygon fill="#2C3E50" points="2671,3565 4287,2997 2676,6356 1805,5370 "/>
 </g>
</svg>
