<?xml version="1.0" encoding="utf-8"?><svg xmlns="http://www.w3.org/2000/svg" xmlns:xlink="http://www.w3.org/1999/xlink" width="2387" height="1055" preserveAspectRatio="xMidYMid" viewBox="0 0 2387 1055" style="z-index:1;margin-right:-2px;display:block;background-repeat-y:initial;background-repeat-x:initial;background-color:rgb(241, 242, 243);animation-play-state:paused" ><g transform="translate(1193.5,527.5) scale(1,1) translate(-1193.5,-527.5)" style="transform:matrix(1, 0, 0, 1, 0, 0);animation-play-state:paused" ><linearGradient id="lg-0.7746544730019311" x1="0" x2="1" y1="0" y2="0" style="animation-play-state:paused" ><stop stop-color="#009ef7" offset="0" style="animation-play-state:paused" ></stop>

  
<stop stop-color="#0055a5" offset="1" style="animation-play-state:paused" ></stop></linearGradient>
<path d="M 0 0 L 0 1082.46 Q 198.917 873.185 397.833 841.239 T 795.667 729.877 T 1193.5 631.262 T 1591.33 509.095 T 1989.17 416.456 T 2387 302.741 L 2387 0 Z" fill="url(#lg-0.7746544730019311)" opacity="0.4" style="opacity:0.4;animation-play-state:paused" ></path>
<path d="M 0 0 L 0 1050.78 Q 198.917 856.328 397.833 826.933 T 795.667 862.463 T 1193.5 737.491 T 1591.33 436.077 T 1989.17 429.15 T 2387 335.196 L 2387 0 Z" fill="url(#lg-0.7746544730019311)" opacity="0.4" style="opacity:0.4;animation-play-state:paused" ></path>
<path d="M 0 0 L 0 924.291 Q 198.917 900.571 397.833 867.765 T 795.667 770.88 T 1193.5 648.544 T 1591.33 614.001 T 1989.17 501.184 T 2387 233.083 L 2387 0 Z" fill="url(#lg-0.7746544730019311)" opacity="0.4" style="opacity:0.4;animation-play-state:paused" ></path>
<path d="M 0 0 L 0 947.165 Q 198.917 908.045 397.833 868.475 T 795.667 829.196 T 1193.5 765.613 T 1591.33 528.653 T 1989.17 475.107 T 2387 417.081 L 2387 0 Z" fill="url(#lg-0.7746544730019311)" opacity="0.4" style="opacity:0.4;animation-play-state:paused" ></path>
<path d="M 0 0 L 0 1143.05 Q 198.917 944.57 397.833 917.207 T 795.667 753.308 T 1193.5 695.86 T 1591.33 537.938 T 1989.17 528.293 T 2387 312.865 L 2387 0 Z" fill="url(#lg-0.7746544730019311)" opacity="0.4" style="opacity:0.4;animation-play-state:paused" ></path>
<path d="M 0 0 L 0 998.031 Q 198.917 988.719 397.833 960.397 T 795.667 784.371 T 1193.5 621.974 T 1591.33 573.112 T 1989.17 386.606 T 2387 254.729 L 2387 0 Z" fill="url(#lg-0.7746544730019311)" opacity="0.4" style="opacity:0.4;animation-play-state:paused" ></path>
<path d="M 0 0 L 0 1032.12 Q 198.917 951.095 397.833 924.068 T 795.667 844.536 T 1193.5 695.827 T 1591.33 567.382 T 1989.17 363.491 T 2387 331.688 L 2387 0 Z" fill="url(#lg-0.7746544730019311)" opacity="0.4" style="opacity:0.4;animation-play-state:paused" ></path>
<path d="M 0 0 L 0 1020.57 Q 198.917 992.675 397.833 968.712 T 795.667 709.397 T 1193.5 677.233 T 1591.33 448.888 T 1989.17 452.251 T 2387 204.046 L 2387 0 Z" fill="url(#lg-0.7746544730019311)" opacity="0.4" style="opacity:0.4;animation-play-state:paused" ></path>
<path d="M 0 0 L 0 1079.39 Q 198.917 897.263 397.833 871.984 T 795.667 744.358 T 1193.5 618.192 T 1591.33 553.923 T 1989.17 549.498 T 2387 325.492 L 2387 0 Z" fill="url(#lg-0.7746544730019311)" opacity="0.4" style="opacity:0.4;animation-play-state:paused" ></path>
<path d="M 0 0 L 0 1074.32 Q 198.917 880.057 397.833 859.653 T 795.667 750.031 T 1193.5 742.759 T 1591.33 474.35 T 1989.17 391.147 T 2387 245.09 L 2387 0 Z" fill="url(#lg-0.7746544730019311)" opacity="0.4" style="opacity:0.4;animation-play-state:paused" ></path></g></svg>